<mxfile host="app.diagrams.net" modified="2020-05-24T13:46:59.794Z" agent="5.0 (Macintosh; Intel Mac OS X 10_15_4) AppleWebKit/537.36 (KHTML, like Gecko) Chrome/81.0.4044.138 Safari/537.36" etag="jyy6I85DSdvLRlmoSW2w" version="13.1.3" type="github">
  <diagram id="LRNmcuPriPD104Y398rS" name="Page-1">
    <mxGraphModel dx="1186" dy="673" grid="0" gridSize="10" guides="1" tooltips="1" connect="1" arrows="1" fold="1" page="1" pageScale="1" pageWidth="1100" pageHeight="850" math="0" shadow="0">
      <root>
        <mxCell id="0" />
        <mxCell id="1" parent="0" />
        <mxCell id="fcCPwcV3jXsdZNyHhmut-1" value="" style="rounded=0;whiteSpace=wrap;html=1;gradientColor=none;fillColor=#E5000D;strokeWidth=2;" parent="1" vertex="1">
          <mxGeometry x="44" y="27" width="120" height="60" as="geometry" />
        </mxCell>
        <mxCell id="fcCPwcV3jXsdZNyHhmut-2" value="" style="rounded=0;whiteSpace=wrap;html=1;fillColor=#e51400;strokeColor=#B20000;fontColor=#ffffff;strokeWidth=2;" parent="1" vertex="1">
          <mxGeometry x="164" y="27" width="120" height="60" as="geometry" />
        </mxCell>
        <mxCell id="fcCPwcV3jXsdZNyHhmut-3" value="" style="rounded=0;whiteSpace=wrap;html=1;fillColor=#e51400;strokeColor=#B20000;fontColor=#ffffff;strokeWidth=2;" parent="1" vertex="1">
          <mxGeometry x="284" y="27" width="120" height="60" as="geometry" />
        </mxCell>
        <mxCell id="fcCPwcV3jXsdZNyHhmut-4" value="" style="rounded=0;whiteSpace=wrap;html=1;fillColor=#e51400;strokeColor=#B20000;fontColor=#ffffff;strokeWidth=2;" parent="1" vertex="1">
          <mxGeometry x="404" y="27" width="120" height="60" as="geometry" />
        </mxCell>
        <mxCell id="fcCPwcV3jXsdZNyHhmut-9" value="Node" style="rounded=0;whiteSpace=wrap;html=1;strokeWidth=1;fillColor=#FF7F00;gradientColor=none;strokeColor=none;" parent="1" vertex="1">
          <mxGeometry x="55" y="35" width="98" height="44" as="geometry" />
        </mxCell>
        <mxCell id="fcCPwcV3jXsdZNyHhmut-11" value="Node" style="rounded=0;whiteSpace=wrap;html=1;strokeWidth=1;fillColor=#FF7F00;gradientColor=none;strokeColor=none;" parent="1" vertex="1">
          <mxGeometry x="55" y="125" width="98" height="44" as="geometry" />
        </mxCell>
        <mxCell id="fcCPwcV3jXsdZNyHhmut-12" value="Node" style="rounded=0;whiteSpace=wrap;html=1;strokeWidth=1;fillColor=#FF7F00;gradientColor=none;strokeColor=none;" parent="1" vertex="1">
          <mxGeometry x="55" y="215" width="98" height="44" as="geometry" />
        </mxCell>
        <mxCell id="fcCPwcV3jXsdZNyHhmut-13" value="" style="endArrow=classic;html=1;exitX=0.5;exitY=1;exitDx=0;exitDy=0;entryX=0.5;entryY=0;entryDx=0;entryDy=0;rounded=1;" parent="1" source="fcCPwcV3jXsdZNyHhmut-1" target="fcCPwcV3jXsdZNyHhmut-11" edge="1">
          <mxGeometry width="50" height="50" relative="1" as="geometry">
            <mxPoint x="291" y="115" as="sourcePoint" />
            <mxPoint x="341" y="65" as="targetPoint" />
          </mxGeometry>
        </mxCell>
        <mxCell id="fcCPwcV3jXsdZNyHhmut-14" value="" style="endArrow=classic;html=1;exitX=0.5;exitY=1;exitDx=0;exitDy=0;entryX=0.5;entryY=0;entryDx=0;entryDy=0;" parent="1" source="fcCPwcV3jXsdZNyHhmut-11" target="fcCPwcV3jXsdZNyHhmut-12" edge="1">
          <mxGeometry width="50" height="50" relative="1" as="geometry">
            <mxPoint x="177" y="217" as="sourcePoint" />
            <mxPoint x="227" y="167" as="targetPoint" />
          </mxGeometry>
        </mxCell>
        <mxCell id="HF4ZnQZUnmvhfVxrWhSg-3" value="Segment&lt;br&gt;&lt;br&gt;&lt;br&gt;" style="rounded=0;whiteSpace=wrap;html=1;gradientColor=none;fillColor=#E5000D;strokeWidth=2;" parent="1" vertex="1">
          <mxGeometry x="567" y="27" width="120" height="60" as="geometry" />
        </mxCell>
        <mxCell id="HF4ZnQZUnmvhfVxrWhSg-4" value="Segment&lt;br&gt;&lt;br&gt;&lt;br&gt;" style="rounded=0;whiteSpace=wrap;html=1;gradientColor=none;fillColor=#E5000D;strokeWidth=2;" parent="1" vertex="1">
          <mxGeometry x="687" y="27" width="120" height="60" as="geometry" />
        </mxCell>
        <mxCell id="HF4ZnQZUnmvhfVxrWhSg-5" value="Segment&lt;br&gt;&lt;br&gt;&lt;br&gt;" style="rounded=0;whiteSpace=wrap;html=1;gradientColor=none;fillColor=#E5000D;strokeWidth=2;" parent="1" vertex="1">
          <mxGeometry x="807" y="27" width="120" height="60" as="geometry" />
        </mxCell>
        <mxCell id="HF4ZnQZUnmvhfVxrWhSg-6" value="Segment&lt;br&gt;&lt;br&gt;&lt;br&gt;" style="rounded=0;whiteSpace=wrap;html=1;gradientColor=none;fillColor=#E5000D;strokeWidth=2;" parent="1" vertex="1">
          <mxGeometry x="927" y="27" width="120" height="60" as="geometry" />
        </mxCell>
        <mxCell id="HF4ZnQZUnmvhfVxrWhSg-7" value="HashEntry" style="rounded=0;whiteSpace=wrap;html=1;strokeWidth=1;fillColor=#FF7F00;gradientColor=none;strokeColor=#000000;" parent="1" vertex="1">
          <mxGeometry x="567" y="87" width="60" height="44" as="geometry" />
        </mxCell>
        <mxCell id="HF4ZnQZUnmvhfVxrWhSg-11" value="HashEntry" style="rounded=0;whiteSpace=wrap;html=1;strokeWidth=1;fillColor=#FF7F00;gradientColor=none;strokeColor=#000000;" parent="1" vertex="1">
          <mxGeometry x="627" y="87" width="60" height="44" as="geometry" />
        </mxCell>
        <mxCell id="HF4ZnQZUnmvhfVxrWhSg-12" value="HashEntry" style="rounded=0;whiteSpace=wrap;html=1;strokeWidth=1;fillColor=#FF7F00;gradientColor=none;strokeColor=#000000;" parent="1" vertex="1">
          <mxGeometry x="687" y="87" width="60" height="44" as="geometry" />
        </mxCell>
        <mxCell id="HF4ZnQZUnmvhfVxrWhSg-13" value="HashEntry" style="rounded=0;whiteSpace=wrap;html=1;strokeWidth=1;fillColor=#FF7F00;gradientColor=none;strokeColor=#000000;" parent="1" vertex="1">
          <mxGeometry x="747" y="87" width="60" height="44" as="geometry" />
        </mxCell>
        <mxCell id="HF4ZnQZUnmvhfVxrWhSg-14" value="HashEntry" style="rounded=0;whiteSpace=wrap;html=1;strokeWidth=1;fillColor=#FF7F00;gradientColor=none;strokeColor=#000000;" parent="1" vertex="1">
          <mxGeometry x="807" y="87" width="60" height="44" as="geometry" />
        </mxCell>
        <mxCell id="HF4ZnQZUnmvhfVxrWhSg-15" value="HashEntry" style="rounded=0;whiteSpace=wrap;html=1;strokeWidth=1;fillColor=#FF7F00;gradientColor=none;strokeColor=#000000;" parent="1" vertex="1">
          <mxGeometry x="867" y="87" width="60" height="44" as="geometry" />
        </mxCell>
        <mxCell id="HF4ZnQZUnmvhfVxrWhSg-16" value="HashEntry" style="rounded=0;whiteSpace=wrap;html=1;strokeWidth=1;fillColor=#FF7F00;gradientColor=none;strokeColor=#000000;" parent="1" vertex="1">
          <mxGeometry x="927" y="87" width="60" height="44" as="geometry" />
        </mxCell>
        <mxCell id="HF4ZnQZUnmvhfVxrWhSg-17" value="HashEntry" style="rounded=0;whiteSpace=wrap;html=1;strokeWidth=1;fillColor=#FF7F00;gradientColor=none;strokeColor=#000000;" parent="1" vertex="1">
          <mxGeometry x="987" y="87" width="60" height="44" as="geometry" />
        </mxCell>
        <mxCell id="HF4ZnQZUnmvhfVxrWhSg-18" value="Node" style="rounded=0;whiteSpace=wrap;html=1;strokeWidth=1;fillColor=#FF7F00;gradientColor=none;strokeColor=none;" parent="1" vertex="1">
          <mxGeometry x="567" y="157" width="60" height="44" as="geometry" />
        </mxCell>
        <mxCell id="HF4ZnQZUnmvhfVxrWhSg-19" value="Node" style="rounded=0;whiteSpace=wrap;html=1;strokeWidth=1;fillColor=#FF7F00;gradientColor=none;strokeColor=none;" parent="1" vertex="1">
          <mxGeometry x="567" y="227" width="60" height="44" as="geometry" />
        </mxCell>
        <mxCell id="HF4ZnQZUnmvhfVxrWhSg-20" value="" style="endArrow=classic;html=1;exitX=0.5;exitY=1;exitDx=0;exitDy=0;entryX=0.5;entryY=0;entryDx=0;entryDy=0;" parent="1" source="HF4ZnQZUnmvhfVxrWhSg-7" target="HF4ZnQZUnmvhfVxrWhSg-18" edge="1">
          <mxGeometry width="50" height="50" relative="1" as="geometry">
            <mxPoint x="581" y="346" as="sourcePoint" />
            <mxPoint x="631" y="296" as="targetPoint" />
          </mxGeometry>
        </mxCell>
        <mxCell id="HF4ZnQZUnmvhfVxrWhSg-21" value="" style="endArrow=classic;html=1;exitX=0.5;exitY=1;exitDx=0;exitDy=0;" parent="1" source="HF4ZnQZUnmvhfVxrWhSg-18" target="HF4ZnQZUnmvhfVxrWhSg-19" edge="1">
          <mxGeometry width="50" height="50" relative="1" as="geometry">
            <mxPoint x="581" y="346" as="sourcePoint" />
            <mxPoint x="631" y="296" as="targetPoint" />
          </mxGeometry>
        </mxCell>
        <mxCell id="HF4ZnQZUnmvhfVxrWhSg-23" value="Node" style="rounded=0;whiteSpace=wrap;html=1;strokeWidth=1;fillColor=#FF7F00;gradientColor=none;strokeColor=none;" parent="1" vertex="1">
          <mxGeometry x="987" y="157" width="60" height="44" as="geometry" />
        </mxCell>
        <mxCell id="HF4ZnQZUnmvhfVxrWhSg-24" value="Node" style="rounded=0;whiteSpace=wrap;html=1;strokeWidth=1;fillColor=#FF7F00;gradientColor=none;strokeColor=none;" parent="1" vertex="1">
          <mxGeometry x="987" y="227" width="60" height="44" as="geometry" />
        </mxCell>
        <mxCell id="HF4ZnQZUnmvhfVxrWhSg-25" value="" style="endArrow=classic;html=1;exitX=0.5;exitY=1;exitDx=0;exitDy=0;entryX=0.5;entryY=0;entryDx=0;entryDy=0;" parent="1" target="HF4ZnQZUnmvhfVxrWhSg-23" edge="1">
          <mxGeometry width="50" height="50" relative="1" as="geometry">
            <mxPoint x="1017" y="131" as="sourcePoint" />
            <mxPoint x="1051" y="296" as="targetPoint" />
          </mxGeometry>
        </mxCell>
        <mxCell id="HF4ZnQZUnmvhfVxrWhSg-26" value="" style="endArrow=classic;html=1;exitX=0.5;exitY=1;exitDx=0;exitDy=0;" parent="1" source="HF4ZnQZUnmvhfVxrWhSg-23" target="HF4ZnQZUnmvhfVxrWhSg-24" edge="1">
          <mxGeometry width="50" height="50" relative="1" as="geometry">
            <mxPoint x="1001" y="346" as="sourcePoint" />
            <mxPoint x="1051" y="296" as="targetPoint" />
          </mxGeometry>
        </mxCell>
        <mxCell id="Vyz3LP13hI8H_kBhVkGY-3" value="" style="rounded=0;whiteSpace=wrap;html=1;gradientColor=none;fillColor=#E5000D;strokeWidth=2;" parent="1" vertex="1">
          <mxGeometry x="44" y="394" width="120" height="60" as="geometry" />
        </mxCell>
        <mxCell id="Vyz3LP13hI8H_kBhVkGY-4" value="" style="rounded=0;whiteSpace=wrap;html=1;fillColor=#e51400;strokeColor=#B20000;fontColor=#ffffff;strokeWidth=2;" parent="1" vertex="1">
          <mxGeometry x="164" y="394" width="120" height="60" as="geometry" />
        </mxCell>
        <mxCell id="Vyz3LP13hI8H_kBhVkGY-5" value="" style="rounded=0;whiteSpace=wrap;html=1;fillColor=#e51400;strokeColor=#B20000;fontColor=#ffffff;strokeWidth=2;" parent="1" vertex="1">
          <mxGeometry x="284" y="394" width="120" height="60" as="geometry" />
        </mxCell>
        <mxCell id="Vyz3LP13hI8H_kBhVkGY-6" value="" style="rounded=0;whiteSpace=wrap;html=1;fillColor=#e51400;strokeColor=#B20000;fontColor=#ffffff;strokeWidth=2;" parent="1" vertex="1">
          <mxGeometry x="404" y="394" width="120" height="60" as="geometry" />
        </mxCell>
        <mxCell id="Vyz3LP13hI8H_kBhVkGY-7" value="Node" style="rounded=0;whiteSpace=wrap;html=1;strokeWidth=1;fillColor=#FF7F00;gradientColor=none;strokeColor=none;" parent="1" vertex="1">
          <mxGeometry x="55" y="402" width="98" height="44" as="geometry" />
        </mxCell>
        <mxCell id="Vyz3LP13hI8H_kBhVkGY-8" value="Node" style="rounded=0;whiteSpace=wrap;html=1;strokeWidth=1;fillColor=#FF7F00;gradientColor=none;strokeColor=none;" parent="1" vertex="1">
          <mxGeometry x="55" y="492" width="98" height="44" as="geometry" />
        </mxCell>
        <mxCell id="Vyz3LP13hI8H_kBhVkGY-9" value="Node" style="rounded=0;whiteSpace=wrap;html=1;strokeWidth=1;fillColor=#FF7F00;gradientColor=none;strokeColor=none;" parent="1" vertex="1">
          <mxGeometry x="55" y="582" width="98" height="44" as="geometry" />
        </mxCell>
        <mxCell id="Vyz3LP13hI8H_kBhVkGY-10" value="" style="endArrow=classic;html=1;exitX=0.5;exitY=1;exitDx=0;exitDy=0;entryX=0.5;entryY=0;entryDx=0;entryDy=0;rounded=1;" parent="1" source="Vyz3LP13hI8H_kBhVkGY-3" target="Vyz3LP13hI8H_kBhVkGY-8" edge="1">
          <mxGeometry width="50" height="50" relative="1" as="geometry">
            <mxPoint x="291" y="482" as="sourcePoint" />
            <mxPoint x="341" y="432" as="targetPoint" />
          </mxGeometry>
        </mxCell>
        <mxCell id="Vyz3LP13hI8H_kBhVkGY-11" value="" style="endArrow=classic;html=1;exitX=0.5;exitY=1;exitDx=0;exitDy=0;entryX=0.5;entryY=0;entryDx=0;entryDy=0;" parent="1" source="Vyz3LP13hI8H_kBhVkGY-8" target="Vyz3LP13hI8H_kBhVkGY-9" edge="1">
          <mxGeometry width="50" height="50" relative="1" as="geometry">
            <mxPoint x="177" y="584" as="sourcePoint" />
            <mxPoint x="227" y="534" as="targetPoint" />
          </mxGeometry>
        </mxCell>
        <mxCell id="Vyz3LP13hI8H_kBhVkGY-12" value="&lt;font color=&quot;#ffffff&quot;&gt;TreeNode&lt;/font&gt;" style="ellipse;whiteSpace=wrap;html=1;aspect=fixed;fillColor=#000000;" parent="1" vertex="1">
          <mxGeometry x="312" y="394" width="60" height="60" as="geometry" />
        </mxCell>
        <mxCell id="Vyz3LP13hI8H_kBhVkGY-13" value="&lt;font color=&quot;#ffffff&quot;&gt;TreeNode&lt;/font&gt;" style="ellipse;whiteSpace=wrap;html=1;aspect=fixed;fillColor=#e51400;strokeColor=#B20000;fontColor=#ffffff;" parent="1" vertex="1">
          <mxGeometry x="252" y="492" width="60" height="60" as="geometry" />
        </mxCell>
        <mxCell id="Vyz3LP13hI8H_kBhVkGY-14" value="&lt;font color=&quot;#ffffff&quot;&gt;TreeNode&lt;/font&gt;" style="ellipse;whiteSpace=wrap;html=1;aspect=fixed;fillColor=#e51400;strokeColor=#B20000;fontColor=#ffffff;" parent="1" vertex="1">
          <mxGeometry x="372" y="492" width="60" height="60" as="geometry" />
        </mxCell>
        <mxCell id="Vyz3LP13hI8H_kBhVkGY-15" value="" style="endArrow=classic;html=1;exitX=0.5;exitY=1;exitDx=0;exitDy=0;entryX=1;entryY=0;entryDx=0;entryDy=0;" parent="1" source="Vyz3LP13hI8H_kBhVkGY-12" target="Vyz3LP13hI8H_kBhVkGY-13" edge="1">
          <mxGeometry width="50" height="50" relative="1" as="geometry">
            <mxPoint x="259" y="722" as="sourcePoint" />
            <mxPoint x="309" y="672" as="targetPoint" />
          </mxGeometry>
        </mxCell>
        <mxCell id="Vyz3LP13hI8H_kBhVkGY-16" value="" style="endArrow=classic;html=1;exitX=0.5;exitY=1;exitDx=0;exitDy=0;" parent="1" source="Vyz3LP13hI8H_kBhVkGY-12" target="Vyz3LP13hI8H_kBhVkGY-14" edge="1">
          <mxGeometry width="50" height="50" relative="1" as="geometry">
            <mxPoint x="327" y="702" as="sourcePoint" />
            <mxPoint x="377" y="652" as="targetPoint" />
          </mxGeometry>
        </mxCell>
        <mxCell id="Vyz3LP13hI8H_kBhVkGY-17" value="&lt;font color=&quot;#ffffff&quot;&gt;TreeNode&lt;/font&gt;" style="ellipse;whiteSpace=wrap;html=1;aspect=fixed;fillColor=#e51400;strokeColor=#B20000;fontColor=#ffffff;" parent="1" vertex="1">
          <mxGeometry x="213.5" y="574" width="60" height="60" as="geometry" />
        </mxCell>
        <mxCell id="Vyz3LP13hI8H_kBhVkGY-18" value="&lt;font color=&quot;#ffffff&quot;&gt;TreeNode&lt;/font&gt;" style="ellipse;whiteSpace=wrap;html=1;aspect=fixed;fillColor=#e51400;strokeColor=#B20000;fontColor=#ffffff;" parent="1" vertex="1">
          <mxGeometry x="311.5" y="574" width="60" height="60" as="geometry" />
        </mxCell>
        <mxCell id="Vyz3LP13hI8H_kBhVkGY-19" value="&lt;font color=&quot;#ffffff&quot;&gt;TreeNode&lt;/font&gt;" style="ellipse;whiteSpace=wrap;html=1;aspect=fixed;fillColor=#e51400;strokeColor=#B20000;fontColor=#ffffff;" parent="1" vertex="1">
          <mxGeometry x="410.5" y="574" width="60" height="60" as="geometry" />
        </mxCell>
        <mxCell id="Vyz3LP13hI8H_kBhVkGY-20" value="" style="endArrow=classic;html=1;exitX=1;exitY=0;exitDx=0;exitDy=0;entryX=0;entryY=0;entryDx=0;entryDy=0;" parent="1" source="Vyz3LP13hI8H_kBhVkGY-17" target="Vyz3LP13hI8H_kBhVkGY-18" edge="1">
          <mxGeometry width="50" height="50" relative="1" as="geometry">
            <mxPoint x="248.5" y="722" as="sourcePoint" />
            <mxPoint x="298.5" y="672" as="targetPoint" />
          </mxGeometry>
        </mxCell>
        <mxCell id="Vyz3LP13hI8H_kBhVkGY-21" value="" style="endArrow=classic;html=1;exitX=0;exitY=1;exitDx=0;exitDy=0;entryX=1;entryY=1;entryDx=0;entryDy=0;" parent="1" source="Vyz3LP13hI8H_kBhVkGY-18" target="Vyz3LP13hI8H_kBhVkGY-17" edge="1">
          <mxGeometry width="50" height="50" relative="1" as="geometry">
            <mxPoint x="334.5" y="787" as="sourcePoint" />
            <mxPoint x="384.5" y="737" as="targetPoint" />
          </mxGeometry>
        </mxCell>
        <mxCell id="Vyz3LP13hI8H_kBhVkGY-22" value="" style="endArrow=classic;html=1;entryX=0;entryY=0;entryDx=0;entryDy=0;" parent="1" target="Vyz3LP13hI8H_kBhVkGY-19" edge="1">
          <mxGeometry width="50" height="50" relative="1" as="geometry">
            <mxPoint x="362.5" y="583" as="sourcePoint" />
            <mxPoint x="298.5" y="672" as="targetPoint" />
          </mxGeometry>
        </mxCell>
        <mxCell id="Vyz3LP13hI8H_kBhVkGY-23" value="" style="endArrow=classic;html=1;exitX=0;exitY=1;exitDx=0;exitDy=0;entryX=1;entryY=1;entryDx=0;entryDy=0;" parent="1" source="Vyz3LP13hI8H_kBhVkGY-19" target="Vyz3LP13hI8H_kBhVkGY-18" edge="1">
          <mxGeometry width="50" height="50" relative="1" as="geometry">
            <mxPoint x="334.5" y="787" as="sourcePoint" />
            <mxPoint x="384.5" y="737" as="targetPoint" />
          </mxGeometry>
        </mxCell>
        <mxCell id="Vyz3LP13hI8H_kBhVkGY-24" value="Node" style="rounded=0;whiteSpace=wrap;html=1;strokeWidth=1;fillColor=#FF7F00;gradientColor=none;strokeColor=none;" parent="1" vertex="1">
          <mxGeometry x="295" y="35" width="98" height="44" as="geometry" />
        </mxCell>
        <mxCell id="Vyz3LP13hI8H_kBhVkGY-25" value="" style="endArrow=classic;html=1;exitX=0.5;exitY=1;exitDx=0;exitDy=0;entryX=0.5;entryY=0;entryDx=0;entryDy=0;rounded=1;" parent="1" target="Vyz3LP13hI8H_kBhVkGY-28" edge="1">
          <mxGeometry width="50" height="50" relative="1" as="geometry">
            <mxPoint x="344" y="87" as="sourcePoint" />
            <mxPoint x="581" y="65" as="targetPoint" />
          </mxGeometry>
        </mxCell>
        <mxCell id="Vyz3LP13hI8H_kBhVkGY-26" value="" style="endArrow=classic;html=1;exitX=0.5;exitY=1;exitDx=0;exitDy=0;entryX=0.5;entryY=0;entryDx=0;entryDy=0;" parent="1" source="Vyz3LP13hI8H_kBhVkGY-28" target="Vyz3LP13hI8H_kBhVkGY-27" edge="1">
          <mxGeometry width="50" height="50" relative="1" as="geometry">
            <mxPoint x="417" y="217" as="sourcePoint" />
            <mxPoint x="467" y="167" as="targetPoint" />
          </mxGeometry>
        </mxCell>
        <mxCell id="Vyz3LP13hI8H_kBhVkGY-27" value="Node" style="rounded=0;whiteSpace=wrap;html=1;strokeWidth=1;fillColor=#FF7F00;gradientColor=none;strokeColor=none;" parent="1" vertex="1">
          <mxGeometry x="295" y="215" width="98" height="44" as="geometry" />
        </mxCell>
        <mxCell id="Vyz3LP13hI8H_kBhVkGY-28" value="Node" style="rounded=0;whiteSpace=wrap;html=1;strokeWidth=1;fillColor=#FF7F00;gradientColor=none;strokeColor=none;" parent="1" vertex="1">
          <mxGeometry x="295" y="125" width="98" height="44" as="geometry" />
        </mxCell>
        <mxCell id="VIIulv9Uhp1Uwnn6fN1H-1" value="" style="rounded=0;whiteSpace=wrap;html=1;gradientColor=none;fillColor=#E5000D;strokeWidth=2;" vertex="1" parent="1">
          <mxGeometry x="553" y="394" width="120" height="60" as="geometry" />
        </mxCell>
        <mxCell id="VIIulv9Uhp1Uwnn6fN1H-2" value="" style="rounded=0;whiteSpace=wrap;html=1;fillColor=#e51400;strokeColor=#B20000;fontColor=#ffffff;strokeWidth=2;" vertex="1" parent="1">
          <mxGeometry x="673" y="394" width="120" height="60" as="geometry" />
        </mxCell>
        <mxCell id="VIIulv9Uhp1Uwnn6fN1H-3" value="" style="rounded=0;whiteSpace=wrap;html=1;fillColor=#e51400;strokeColor=#B20000;fontColor=#ffffff;strokeWidth=2;" vertex="1" parent="1">
          <mxGeometry x="793" y="394" width="120" height="60" as="geometry" />
        </mxCell>
        <mxCell id="VIIulv9Uhp1Uwnn6fN1H-4" value="" style="rounded=0;whiteSpace=wrap;html=1;fillColor=#e51400;strokeColor=#B20000;fontColor=#ffffff;strokeWidth=2;" vertex="1" parent="1">
          <mxGeometry x="913" y="394" width="120" height="60" as="geometry" />
        </mxCell>
        <mxCell id="VIIulv9Uhp1Uwnn6fN1H-5" value="Node" style="rounded=0;whiteSpace=wrap;html=1;strokeWidth=1;fillColor=#FF7F00;gradientColor=none;strokeColor=none;" vertex="1" parent="1">
          <mxGeometry x="564" y="402" width="98" height="44" as="geometry" />
        </mxCell>
        <mxCell id="VIIulv9Uhp1Uwnn6fN1H-6" value="Node" style="rounded=0;whiteSpace=wrap;html=1;strokeWidth=1;fillColor=#FF7F00;gradientColor=none;strokeColor=none;" vertex="1" parent="1">
          <mxGeometry x="564" y="492" width="98" height="44" as="geometry" />
        </mxCell>
        <mxCell id="VIIulv9Uhp1Uwnn6fN1H-7" value="Node" style="rounded=0;whiteSpace=wrap;html=1;strokeWidth=1;fillColor=#FF7F00;gradientColor=none;strokeColor=none;" vertex="1" parent="1">
          <mxGeometry x="564" y="582" width="98" height="44" as="geometry" />
        </mxCell>
        <mxCell id="VIIulv9Uhp1Uwnn6fN1H-8" value="" style="endArrow=classic;html=1;exitX=0.5;exitY=1;exitDx=0;exitDy=0;entryX=0.5;entryY=0;entryDx=0;entryDy=0;rounded=1;" edge="1" source="VIIulv9Uhp1Uwnn6fN1H-1" target="VIIulv9Uhp1Uwnn6fN1H-6" parent="1">
          <mxGeometry width="50" height="50" relative="1" as="geometry">
            <mxPoint x="800" y="482" as="sourcePoint" />
            <mxPoint x="850" y="432" as="targetPoint" />
          </mxGeometry>
        </mxCell>
        <mxCell id="VIIulv9Uhp1Uwnn6fN1H-9" value="" style="endArrow=classic;html=1;exitX=0.5;exitY=1;exitDx=0;exitDy=0;entryX=0.5;entryY=0;entryDx=0;entryDy=0;" edge="1" source="VIIulv9Uhp1Uwnn6fN1H-6" target="VIIulv9Uhp1Uwnn6fN1H-7" parent="1">
          <mxGeometry width="50" height="50" relative="1" as="geometry">
            <mxPoint x="686" y="584" as="sourcePoint" />
            <mxPoint x="736" y="534" as="targetPoint" />
          </mxGeometry>
        </mxCell>
        <mxCell id="VIIulv9Uhp1Uwnn6fN1H-10" value="&lt;font color=&quot;#ffffff&quot;&gt;TreeBin&lt;/font&gt;" style="ellipse;whiteSpace=wrap;html=1;aspect=fixed;fillColor=#000000;" vertex="1" parent="1">
          <mxGeometry x="821" y="394" width="60" height="60" as="geometry" />
        </mxCell>
        <mxCell id="VIIulv9Uhp1Uwnn6fN1H-11" value="&lt;font color=&quot;#ffffff&quot;&gt;TreeNode&lt;/font&gt;" style="ellipse;whiteSpace=wrap;html=1;aspect=fixed;fillColor=#e51400;strokeColor=#B20000;fontColor=#ffffff;" vertex="1" parent="1">
          <mxGeometry x="761" y="492" width="60" height="60" as="geometry" />
        </mxCell>
        <mxCell id="VIIulv9Uhp1Uwnn6fN1H-12" value="&lt;font color=&quot;#ffffff&quot;&gt;TreeNode&lt;/font&gt;" style="ellipse;whiteSpace=wrap;html=1;aspect=fixed;fillColor=#e51400;strokeColor=#B20000;fontColor=#ffffff;" vertex="1" parent="1">
          <mxGeometry x="881" y="492" width="60" height="60" as="geometry" />
        </mxCell>
        <mxCell id="VIIulv9Uhp1Uwnn6fN1H-13" value="" style="endArrow=classic;html=1;exitX=0.5;exitY=1;exitDx=0;exitDy=0;entryX=1;entryY=0;entryDx=0;entryDy=0;" edge="1" source="VIIulv9Uhp1Uwnn6fN1H-10" target="VIIulv9Uhp1Uwnn6fN1H-11" parent="1">
          <mxGeometry width="50" height="50" relative="1" as="geometry">
            <mxPoint x="768" y="722" as="sourcePoint" />
            <mxPoint x="818" y="672" as="targetPoint" />
          </mxGeometry>
        </mxCell>
        <mxCell id="VIIulv9Uhp1Uwnn6fN1H-14" value="" style="endArrow=classic;html=1;exitX=0.5;exitY=1;exitDx=0;exitDy=0;" edge="1" source="VIIulv9Uhp1Uwnn6fN1H-10" target="VIIulv9Uhp1Uwnn6fN1H-12" parent="1">
          <mxGeometry width="50" height="50" relative="1" as="geometry">
            <mxPoint x="836" y="702" as="sourcePoint" />
            <mxPoint x="886" y="652" as="targetPoint" />
          </mxGeometry>
        </mxCell>
        <mxCell id="VIIulv9Uhp1Uwnn6fN1H-15" value="&lt;font color=&quot;#ffffff&quot;&gt;TreeNode&lt;/font&gt;" style="ellipse;whiteSpace=wrap;html=1;aspect=fixed;fillColor=#e51400;strokeColor=#B20000;fontColor=#ffffff;" vertex="1" parent="1">
          <mxGeometry x="722.5" y="574" width="60" height="60" as="geometry" />
        </mxCell>
        <mxCell id="VIIulv9Uhp1Uwnn6fN1H-16" value="&lt;font color=&quot;#ffffff&quot;&gt;TreeNode&lt;/font&gt;" style="ellipse;whiteSpace=wrap;html=1;aspect=fixed;fillColor=#e51400;strokeColor=#B20000;fontColor=#ffffff;" vertex="1" parent="1">
          <mxGeometry x="820.5" y="574" width="60" height="60" as="geometry" />
        </mxCell>
        <mxCell id="VIIulv9Uhp1Uwnn6fN1H-17" value="&lt;font color=&quot;#ffffff&quot;&gt;TreeNode&lt;/font&gt;" style="ellipse;whiteSpace=wrap;html=1;aspect=fixed;fillColor=#e51400;strokeColor=#B20000;fontColor=#ffffff;" vertex="1" parent="1">
          <mxGeometry x="919.5" y="574" width="60" height="60" as="geometry" />
        </mxCell>
        <mxCell id="VIIulv9Uhp1Uwnn6fN1H-18" value="" style="endArrow=classic;html=1;exitX=1;exitY=0;exitDx=0;exitDy=0;entryX=0;entryY=0;entryDx=0;entryDy=0;" edge="1" source="VIIulv9Uhp1Uwnn6fN1H-15" target="VIIulv9Uhp1Uwnn6fN1H-16" parent="1">
          <mxGeometry width="50" height="50" relative="1" as="geometry">
            <mxPoint x="757.5" y="722" as="sourcePoint" />
            <mxPoint x="807.5" y="672" as="targetPoint" />
          </mxGeometry>
        </mxCell>
        <mxCell id="VIIulv9Uhp1Uwnn6fN1H-19" value="" style="endArrow=classic;html=1;exitX=0;exitY=1;exitDx=0;exitDy=0;entryX=1;entryY=1;entryDx=0;entryDy=0;" edge="1" source="VIIulv9Uhp1Uwnn6fN1H-16" target="VIIulv9Uhp1Uwnn6fN1H-15" parent="1">
          <mxGeometry width="50" height="50" relative="1" as="geometry">
            <mxPoint x="843.5" y="787" as="sourcePoint" />
            <mxPoint x="893.5" y="737" as="targetPoint" />
          </mxGeometry>
        </mxCell>
        <mxCell id="VIIulv9Uhp1Uwnn6fN1H-20" value="" style="endArrow=classic;html=1;entryX=0;entryY=0;entryDx=0;entryDy=0;" edge="1" target="VIIulv9Uhp1Uwnn6fN1H-17" parent="1">
          <mxGeometry width="50" height="50" relative="1" as="geometry">
            <mxPoint x="871.5" y="583" as="sourcePoint" />
            <mxPoint x="807.5" y="672" as="targetPoint" />
          </mxGeometry>
        </mxCell>
        <mxCell id="VIIulv9Uhp1Uwnn6fN1H-21" value="" style="endArrow=classic;html=1;exitX=0;exitY=1;exitDx=0;exitDy=0;entryX=1;entryY=1;entryDx=0;entryDy=0;" edge="1" source="VIIulv9Uhp1Uwnn6fN1H-17" target="VIIulv9Uhp1Uwnn6fN1H-16" parent="1">
          <mxGeometry width="50" height="50" relative="1" as="geometry">
            <mxPoint x="843.5" y="787" as="sourcePoint" />
            <mxPoint x="893.5" y="737" as="targetPoint" />
          </mxGeometry>
        </mxCell>
      </root>
    </mxGraphModel>
  </diagram>
</mxfile>
